<?xml version="1.0"?>
<!-- Generated by SVGo -->
<svg width="730" height="300"
     xmlns="http://www.w3.org/2000/svg"
     xmlns:xlink="http://www.w3.org/1999/xlink">
<rect x="10" y="37" width="50" height="213" style="fill:rgb(77,200,232)" />
<text x="35" y="275" style="font-size:16px;text-anchor:middle;fill:rgb(150,150,150)" >Jan</text>
<rect x="70" y="25" width="50" height="225" style="fill:rgb(77,200,232)" />
<text x="95" y="275" style="font-size:16px;text-anchor:middle;fill:rgb(150,150,150)" >Feb</text>
<rect x="130" y="83" width="50" height="167" style="fill:rgb(77,200,232)" />
<text x="155" y="275" style="font-size:16px;text-anchor:middle;fill:rgb(150,150,150)" >Mar</text>
<rect x="190" y="0" width="50" height="250" style="fill:rgb(77,200,232)" />
<text x="215" y="275" style="font-size:16px;text-anchor:middle;fill:rgb(150,150,150)" >Apr</text>
<rect x="250" y="63" width="50" height="187" style="fill:rgb(77,200,232)" />
<text x="275" y="275" style="font-size:16px;text-anchor:middle;fill:rgb(150,150,150)" >May</text>
<rect x="310" y="50" width="50" height="200" style="fill:rgb(77,200,232)" />
<text x="335" y="275" style="font-size:16px;text-anchor:middle;fill:rgb(150,150,150)" >Jun</text>
<rect x="370" y="142" width="50" height="108" style="fill:rgb(77,200,232)" />
<text x="395" y="275" style="font-size:16px;text-anchor:middle;fill:rgb(150,150,150)" >Jul</text>
<rect x="430" y="39" width="50" height="211" style="fill:rgb(77,200,232)" />
<text x="455" y="275" style="font-size:16px;text-anchor:middle;fill:rgb(150,150,150)" >Aug</text>
<rect x="490" y="122" width="50" height="128" style="fill:rgb(77,200,232)" />
<text x="515" y="275" style="font-size:16px;text-anchor:middle;fill:rgb(150,150,150)" >Sep</text>
<rect x="550" y="75" width="50" height="175" style="fill:rgb(77,200,232)" />
<text x="575" y="275" style="font-size:16px;text-anchor:middle;fill:rgb(150,150,150)" >Oct</text>
<rect x="610" y="63" width="50" height="187" style="fill:rgb(77,200,232)" />
<text x="635" y="275" style="font-size:16px;text-anchor:middle;fill:rgb(150,150,150)" >Nov</text>
<rect x="670" y="50" width="50" height="200" style="fill:rgb(77,200,232)" />
<text x="695" y="275" style="font-size:16px;text-anchor:middle;fill:rgb(150,150,150)" >Dec</text>
<line x1="0" y1="150" x2="730" y2="150" style="stroke:rgb(250,100,100);stroke-width:2px;" />
<line x1="0" y1="250" x2="730" y2="250" style="stroke:rgb(150,150,150);stroke-width:2px;" />
<rect x="0" y="0" width="730" height="150" style="fill:rgb(255, 100, 100);opacity:0.5" />
</svg>
